<svg width="306" height="83" viewBox="0 0 306 83" fill="none" xmlns="http://www.w3.org/2000/svg">
<g clip-path="url(#clip0_61_3439)">
<path d="M269.948 2.27197C288.754 2.2725 304 17.5722 304 36.4454C304 55.319 288.755 70.6207 269.948 70.6212H162.489L156.746 79.1745C154.866 81.9711 150.764 81.9711 148.885 79.1745L143.142 70.6212H36.052C17.2455 70.6207 2 55.319 2 36.4454C2.00052 17.5722 17.2458 2.2725 36.052 2.27197H269.948Z" fill="#B30F8E"/>
<path d="M301.262 35.6813C300.836 18.9261 287.288 5.42032 270.481 4.99568L269.666 4.98647H36.3343C18.8795 4.98697 4.72963 19.0931 4.72912 36.494L4.73836 37.3066C5.17071 54.3324 19.1519 68.0033 36.3343 68.0037H144.415L150.843 77.5179C151.722 78.8169 153.577 78.8984 154.577 77.7619L154.766 77.5179L161.197 68.0037H269.666L270.481 67.9945C287.559 67.563 301.271 53.6237 301.271 36.494L301.262 35.6813ZM305.988 37.4286C305.491 57.0015 289.419 72.7177 269.666 72.7182H163.712L158.687 80.1537C155.875 84.3099 149.737 84.3122 146.925 80.156L141.9 72.7182H36.3343C16.5807 72.7177 0.508812 57.0015 0.0115459 37.4286L0 36.494C0.000556413 16.4894 16.2677 0.272527 36.3343 0.271973H269.666C289.732 0.272527 306 16.4894 306 36.494L305.988 37.4286Z" fill="white"/>
<path d="M33.9815 47.448C32.4882 47.448 31.0908 47.192 29.7895 46.68C28.4882 46.1467 27.3362 45.3573 26.3335 44.312C25.3522 43.2667 24.5735 41.9867 23.9975 40.472C23.4428 38.9573 23.1655 37.2187 23.1655 35.256C23.1655 33.2933 23.4535 31.5547 24.0295 30.04C24.6055 28.504 25.3948 27.2027 26.3975 26.136C27.4215 25.0693 28.5948 24.2587 29.9175 23.704C31.2615 23.1493 32.6802 22.872 34.1735 22.872C35.6882 22.872 37.0322 23.1813 38.2055 23.8C39.4002 24.3973 40.3708 25.1013 41.1175 25.912L38.6535 28.92C38.0562 28.3227 37.3948 27.8427 36.6695 27.48C35.9655 27.1173 35.1655 26.936 34.2695 26.936C33.0748 26.936 31.9975 27.2667 31.0375 27.928C30.0988 28.568 29.3628 29.496 28.8295 30.712C28.2962 31.928 28.0295 33.3893 28.0295 35.096C28.0295 36.824 28.2748 38.3067 28.7655 39.544C29.2775 40.76 29.9922 41.6987 30.9095 42.36C31.8482 43.0213 32.9362 43.352 34.1735 43.352C35.1975 43.352 36.1042 43.1387 36.8935 42.712C37.7042 42.264 38.4188 41.6987 39.0375 41.016L41.5655 43.96C40.5842 45.112 39.4642 45.9867 38.2055 46.584C36.9468 47.16 35.5388 47.448 33.9815 47.448ZM49.7783 47.448C47.8369 47.448 46.4289 46.8187 45.5543 45.56C44.6796 44.28 44.2423 42.5093 44.2423 40.248V29.08H48.9143V39.672C48.9143 41.0587 49.1169 42.0293 49.5223 42.584C49.9276 43.1387 50.5783 43.416 51.4743 43.416C52.1996 43.416 52.8289 43.2453 53.3623 42.904C53.9169 42.5413 54.4929 41.9653 55.0903 41.176V29.08H59.7943V47H55.9543L55.6023 44.408H55.4743C54.7063 45.3253 53.8743 46.0613 52.9783 46.616C52.0823 47.1707 51.0156 47.448 49.7783 47.448ZM64.8093 47V29.08H68.6493L69.0013 32.248H69.0973C69.7586 31.0747 70.5373 30.1787 71.4333 29.56C72.3293 28.9413 73.2466 28.632 74.1853 28.632C74.6973 28.632 75.1026 28.6747 75.4013 28.76C75.7213 28.824 76.0093 28.9093 76.2653 29.016L75.4973 33.08C75.1559 32.9947 74.8466 32.9307 74.5693 32.888C74.3133 32.824 73.9826 32.792 73.5773 32.792C72.8946 32.792 72.1693 33.0587 71.4013 33.592C70.6546 34.1253 70.0253 35.032 69.5133 36.312V47H64.8093ZM78.778 47V29.08H82.618L82.97 32.248H83.066C83.7273 31.0747 84.506 30.1787 85.402 29.56C86.298 28.9413 87.2153 28.632 88.154 28.632C88.666 28.632 89.0713 28.6747 89.37 28.76C89.69 28.824 89.978 28.9093 90.234 29.016L89.466 33.08C89.1247 32.9947 88.8153 32.9307 88.538 32.888C88.282 32.824 87.9513 32.792 87.546 32.792C86.8633 32.792 86.138 33.0587 85.37 33.592C84.6233 34.1253 83.994 35.032 83.482 36.312V47H78.778ZM100.024 47.448C98.3595 47.448 96.8555 47.0747 95.5115 46.328C94.1675 45.5813 93.0902 44.504 92.2795 43.096C91.4902 41.688 91.0955 40.0027 91.0955 38.04C91.0955 36.5893 91.3195 35.288 91.7675 34.136C92.2368 32.984 92.8662 32.0027 93.6555 31.192C94.4662 30.36 95.3622 29.7307 96.3435 29.304C97.3462 28.856 98.3808 28.632 99.4475 28.632C101.09 28.632 102.466 29.0053 103.576 29.752C104.685 30.4773 105.517 31.4907 106.072 32.792C106.648 34.072 106.936 35.544 106.936 37.208C106.936 37.6347 106.914 38.0507 106.872 38.456C106.829 38.84 106.776 39.1493 106.712 39.384H95.6715C95.7995 40.344 96.0875 41.1547 96.5355 41.816C96.9835 42.4773 97.5595 42.9787 98.2635 43.32C98.9675 43.64 99.7675 43.8 100.664 43.8C101.389 43.8 102.072 43.704 102.712 43.512C103.352 43.2987 104.002 42.9893 104.664 42.584L106.264 45.464C105.389 46.0613 104.408 46.5413 103.32 46.904C102.232 47.2667 101.133 47.448 100.024 47.448ZM95.5755 36.216H102.904C102.904 35.0213 102.626 34.072 102.072 33.368C101.538 32.6427 100.685 32.28 99.5115 32.28C98.8928 32.28 98.3062 32.4293 97.7515 32.728C97.1968 33.0053 96.7275 33.4427 96.3435 34.04C95.9595 34.616 95.7035 35.3413 95.5755 36.216ZM110.809 47V29.08H114.649L115.001 31.448H115.097C115.887 30.68 116.751 30.0187 117.689 29.464C118.628 28.9093 119.705 28.632 120.921 28.632C122.863 28.632 124.271 29.272 125.145 30.552C126.02 31.8107 126.457 33.5707 126.457 35.832V47H121.753V36.408C121.753 35.0213 121.551 34.0507 121.145 33.496C120.761 32.9413 120.121 32.664 119.225 32.664C118.5 32.664 117.86 32.8347 117.305 33.176C116.772 33.5173 116.175 34.0187 115.513 34.68V47H110.809ZM137.869 47.448C136.461 47.448 135.32 47.1707 134.445 46.616C133.571 46.04 132.941 45.2507 132.557 44.248C132.173 43.2453 131.981 42.0827 131.981 40.76V32.792H129.453V29.304L132.237 29.08L132.781 24.248H136.653V29.08H141.101V32.792H136.653V40.728C136.653 41.752 136.867 42.5093 137.293 43C137.72 43.4907 138.328 43.736 139.117 43.736C139.416 43.736 139.725 43.6933 140.045 43.608C140.365 43.5227 140.643 43.4373 140.877 43.352L141.677 46.776C141.187 46.9253 140.621 47.0747 139.981 47.224C139.363 47.3733 138.659 47.448 137.869 47.448ZM152.412 47V23.288H157.148V43.032H166.78V47H152.412ZM177.36 47.448C175.866 47.448 174.458 47.0747 173.136 46.328C171.834 45.5813 170.778 44.5147 169.968 43.128C169.157 41.72 168.752 40.024 168.752 38.04C168.752 36.056 169.157 34.3707 169.968 32.984C170.778 31.576 171.834 30.4987 173.136 29.752C174.458 29.0053 175.866 28.632 177.36 28.632C178.49 28.632 179.568 28.8453 180.592 29.272C181.616 29.6987 182.533 30.3173 183.344 31.128C184.154 31.9173 184.794 32.8987 185.264 34.072C185.733 35.224 185.968 36.5467 185.968 38.04C185.968 40.024 185.562 41.72 184.752 43.128C183.941 44.5147 182.874 45.5813 181.552 46.328C180.25 47.0747 178.853 47.448 177.36 47.448ZM177.36 43.608C178.17 43.608 178.853 43.384 179.408 42.936C179.984 42.4667 180.41 41.816 180.688 40.984C180.986 40.152 181.136 39.1707 181.136 38.04C181.136 36.9093 180.986 35.928 180.688 35.096C180.41 34.264 179.984 33.624 179.408 33.176C178.853 32.7067 178.17 32.472 177.36 32.472C176.549 32.472 175.856 32.7067 175.28 33.176C174.725 33.624 174.298 34.264 174 35.096C173.722 35.928 173.584 36.9093 173.584 38.04C173.584 39.1707 173.722 40.152 174 40.984C174.298 41.816 174.725 42.4667 175.28 42.936C175.856 43.384 176.549 43.608 177.36 43.608ZM197.519 47.448C195.876 47.448 194.394 47.0747 193.071 46.328C191.748 45.5813 190.703 44.5147 189.935 43.128C189.167 41.72 188.783 40.024 188.783 38.04C188.783 36.056 189.199 34.3707 190.031 32.984C190.884 31.576 192.004 30.4987 193.391 29.752C194.799 29.0053 196.314 28.632 197.935 28.632C199.044 28.632 200.026 28.824 200.879 29.208C201.732 29.5707 202.49 30.0507 203.151 30.648L200.911 33.624C200.484 33.24 200.047 32.952 199.599 32.76C199.151 32.568 198.682 32.472 198.191 32.472C197.274 32.472 196.463 32.7067 195.759 33.176C195.076 33.624 194.543 34.264 194.159 35.096C193.796 35.928 193.615 36.9093 193.615 38.04C193.615 39.1707 193.796 40.152 194.159 40.984C194.543 41.816 195.066 42.4667 195.727 42.936C196.41 43.384 197.178 43.608 198.031 43.608C198.671 43.608 199.29 43.4693 199.887 43.192C200.484 42.9147 201.028 42.5733 201.519 42.168L203.375 45.272C202.522 46.0187 201.572 46.5733 200.527 46.936C199.503 47.2773 198.5 47.448 197.519 47.448ZM210.631 47.448C209.585 47.448 208.657 47.224 207.847 46.776C207.057 46.3067 206.439 45.6667 205.991 44.856C205.564 44.0453 205.351 43.128 205.351 42.104C205.351 40.2053 206.172 38.7333 207.815 37.688C209.457 36.6213 212.071 35.896 215.655 35.512C215.633 34.9147 215.527 34.392 215.335 33.944C215.143 33.4747 214.823 33.1013 214.375 32.824C213.948 32.5467 213.361 32.408 212.615 32.408C211.783 32.408 210.961 32.568 210.151 32.888C209.34 33.208 208.519 33.624 207.687 34.136L206.023 31C206.727 30.552 207.473 30.1573 208.263 29.816C209.052 29.4747 209.884 29.1973 210.759 28.984C211.633 28.7493 212.54 28.632 213.479 28.632C214.993 28.632 216.263 28.9307 217.287 29.528C218.311 30.1253 219.079 31.0107 219.591 32.184C220.103 33.3573 220.359 34.808 220.359 36.536V47H216.519L216.199 45.08H216.039C215.271 45.7627 214.439 46.328 213.543 46.776C212.647 47.224 211.676 47.448 210.631 47.448ZM212.199 43.768C212.86 43.768 213.457 43.6187 213.991 43.32C214.545 43 215.1 42.5627 215.655 42.008V38.424C214.204 38.5947 213.052 38.84 212.199 39.16C211.345 39.48 210.737 39.864 210.375 40.312C210.012 40.7387 209.831 41.2187 209.831 41.752C209.831 42.456 210.044 42.968 210.471 43.288C210.919 43.608 211.495 43.768 212.199 43.768ZM230.932 47.448C229.524 47.448 228.382 47.1707 227.508 46.616C226.633 46.04 226.004 45.2507 225.62 44.248C225.236 43.2453 225.044 42.0827 225.044 40.76V32.792H222.516V29.304L225.3 29.08L225.844 24.248H229.716V29.08H234.164V32.792H229.716V40.728C229.716 41.752 229.929 42.5093 230.356 43C230.782 43.4907 231.39 43.736 232.18 43.736C232.478 43.736 232.788 43.6933 233.108 43.608C233.428 43.5227 233.705 43.4373 233.94 43.352L234.74 46.776C234.249 46.9253 233.684 47.0747 233.044 47.224C232.425 47.3733 231.721 47.448 230.932 47.448ZM237.841 47V29.08H242.545V47H237.841ZM240.209 26.168C239.377 26.168 238.715 25.944 238.225 25.496C237.734 25.0267 237.489 24.3973 237.489 23.608C237.489 22.84 237.734 22.2213 238.225 21.752C238.715 21.2827 239.377 21.048 240.209 21.048C240.998 21.048 241.649 21.2827 242.161 21.752C242.673 22.2213 242.929 22.84 242.929 23.608C242.929 24.3973 242.673 25.0267 242.161 25.496C241.649 25.944 240.998 26.168 240.209 26.168ZM255.047 47.448C253.554 47.448 252.146 47.0747 250.823 46.328C249.522 45.5813 248.466 44.5147 247.655 43.128C246.845 41.72 246.439 40.024 246.439 38.04C246.439 36.056 246.845 34.3707 247.655 32.984C248.466 31.576 249.522 30.4987 250.823 29.752C252.146 29.0053 253.554 28.632 255.047 28.632C256.178 28.632 257.255 28.8453 258.279 29.272C259.303 29.6987 260.221 30.3173 261.031 31.128C261.842 31.9173 262.482 32.8987 262.951 34.072C263.421 35.224 263.655 36.5467 263.655 38.04C263.655 40.024 263.25 41.72 262.439 43.128C261.629 44.5147 260.562 45.5813 259.239 46.328C257.938 47.0747 256.541 47.448 255.047 47.448ZM255.047 43.608C255.858 43.608 256.541 43.384 257.095 42.936C257.671 42.4667 258.098 41.816 258.375 40.984C258.674 40.152 258.823 39.1707 258.823 38.04C258.823 36.9093 258.674 35.928 258.375 35.096C258.098 34.264 257.671 33.624 257.095 33.176C256.541 32.7067 255.858 32.472 255.047 32.472C254.237 32.472 253.543 32.7067 252.967 33.176C252.413 33.624 251.986 34.264 251.687 35.096C251.41 35.928 251.271 36.9093 251.271 38.04C251.271 39.1707 251.41 40.152 251.687 40.984C251.986 41.816 252.413 42.4667 252.967 42.936C253.543 43.384 254.237 43.608 255.047 43.608ZM267.591 47V29.08H271.431L271.783 31.448H271.879C272.668 30.68 273.532 30.0187 274.47 29.464C275.409 28.9093 276.487 28.632 277.703 28.632C279.644 28.632 281.052 29.272 281.927 30.552C282.801 31.8107 283.239 33.5707 283.239 35.832V47H278.535V36.408C278.535 35.0213 278.332 34.0507 277.927 33.496C277.543 32.9413 276.903 32.664 276.007 32.664C275.281 32.664 274.641 32.8347 274.087 33.176C273.553 33.5173 272.956 34.0187 272.295 34.68V47H267.591Z" fill="white"/>
</g>
<defs>
<clipPath id="clip0_61_3439">
<rect width="306" height="83" fill="white"/>
</clipPath>
</defs>
</svg>
