<svg width="555" height="166" viewBox="0 0 555 166" fill="none" xmlns="http://www.w3.org/2000/svg">
<rect x="3" y="3" width="549" height="160" rx="27" fill="white"/>
<rect x="3" y="3" width="549" height="160" rx="27" stroke="#404040" stroke-width="6"/>
<path d="M34.128 122V113.84C40.592 108.08 46.096 102.736 50.64 97.808C55.248 92.88 58.768 88.304 61.2 84.08C63.632 79.792 64.848 75.824 64.848 72.176C64.848 69.872 64.432 67.856 63.6 66.128C62.768 64.4 61.552 63.088 59.952 62.192C58.416 61.232 56.496 60.752 54.192 60.752C51.632 60.752 49.264 61.488 47.088 62.96C44.976 64.368 43.024 66.064 41.232 68.048L33.36 60.464C36.688 56.88 40.08 54.192 43.536 52.4C47.056 50.544 51.216 49.616 56.016 49.616C60.496 49.616 64.4 50.544 67.728 52.4C71.12 54.192 73.744 56.72 75.6 59.984C77.456 63.248 78.384 67.088 78.384 71.504C78.384 75.792 77.296 80.176 75.12 84.656C73.008 89.072 70.16 93.488 66.576 97.904C62.992 102.32 59.024 106.672 54.672 110.96C56.528 110.704 58.512 110.512 60.624 110.384C62.8 110.192 64.72 110.096 66.384 110.096H81.744V122H34.128ZM91.681 122V86.16H99.361L100.065 90.896H100.257C101.836 89.36 103.564 88.0373 105.441 86.928C107.318 85.8187 109.473 85.264 111.905 85.264C115.788 85.264 118.604 86.544 120.353 89.104C122.102 91.6213 122.977 95.1413 122.977 99.664V122H113.569V100.816C113.569 98.0427 113.164 96.1013 112.353 94.992C111.585 93.8827 110.305 93.328 108.513 93.328C107.062 93.328 105.782 93.6693 104.673 94.352C103.606 95.0347 102.412 96.0373 101.089 97.36V122H91.681ZM145.289 122.896C142.302 122.896 139.7 122.149 137.481 120.656C135.305 119.163 133.62 117.008 132.425 114.192C131.23 111.376 130.633 108.005 130.633 104.08C130.633 100.197 131.337 96.8693 132.745 94.096C134.196 91.28 136.073 89.104 138.377 87.568C140.681 86.032 143.113 85.264 145.673 85.264C147.678 85.264 149.364 85.6267 150.729 86.352C152.137 87.0347 153.481 87.9733 154.761 89.168L154.441 83.536V70.928H163.849V122H156.169L155.465 118.288H155.209C153.886 119.568 152.372 120.656 150.665 121.552C148.958 122.448 147.166 122.896 145.289 122.896ZM147.721 115.152C149.001 115.152 150.174 114.875 151.241 114.32C152.35 113.723 153.417 112.763 154.441 111.44V95.696C153.374 94.7147 152.265 94.032 151.113 93.648C150.004 93.2213 148.873 93.008 147.721 93.008C146.398 93.008 145.161 93.4347 144.009 94.288C142.9 95.0987 142.004 96.3147 141.321 97.936C140.638 99.5573 140.297 101.563 140.297 103.952C140.297 106.427 140.574 108.496 141.129 110.16C141.726 111.824 142.58 113.083 143.689 113.936C144.798 114.747 146.142 115.152 147.721 115.152ZM189.137 122V74.576H218.321V82.512H198.609V94.864H215.441V102.8H198.609V122H189.137ZM234.702 122.896C232.483 122.896 230.734 122.448 229.454 121.552C228.174 120.613 227.235 119.333 226.638 117.712C226.083 116.048 225.806 114.128 225.806 111.952V70.928H235.214V112.336C235.214 113.403 235.406 114.149 235.79 114.576C236.217 115.003 236.643 115.216 237.07 115.216C237.283 115.216 237.475 115.216 237.646 115.216C237.817 115.173 238.051 115.131 238.35 115.088L239.502 122.064C238.947 122.277 238.265 122.469 237.454 122.64C236.686 122.811 235.769 122.896 234.702 122.896ZM260.97 122.896C257.983 122.896 255.167 122.149 252.522 120.656C249.919 119.163 247.807 117.029 246.186 114.256C244.564 111.44 243.754 108.048 243.754 104.08C243.754 100.112 244.564 96.7413 246.186 93.968C247.807 91.152 249.919 88.9973 252.522 87.504C255.167 86.0107 257.983 85.264 260.97 85.264C263.231 85.264 265.386 85.6907 267.434 86.544C269.482 87.3973 271.316 88.6347 272.938 90.256C274.559 91.8347 275.839 93.7973 276.778 96.144C277.716 98.448 278.186 101.093 278.186 104.08C278.186 108.048 277.375 111.44 275.754 114.256C274.132 117.029 271.999 119.163 269.354 120.656C266.751 122.149 263.956 122.896 260.97 122.896ZM260.97 115.216C262.591 115.216 263.956 114.768 265.066 113.872C266.218 112.933 267.071 111.632 267.626 109.968C268.223 108.304 268.522 106.341 268.522 104.08C268.522 101.819 268.223 99.856 267.626 98.192C267.071 96.528 266.218 95.248 265.066 94.352C263.956 93.4133 262.591 92.944 260.97 92.944C259.348 92.944 257.962 93.4133 256.81 94.352C255.7 95.248 254.847 96.528 254.25 98.192C253.695 99.856 253.418 101.819 253.418 104.08C253.418 106.341 253.695 108.304 254.25 109.968C254.847 111.632 255.7 112.933 256.81 113.872C257.962 114.768 259.348 115.216 260.97 115.216ZM301.032 122.896C298.045 122.896 295.229 122.149 292.584 120.656C289.981 119.163 287.869 117.029 286.248 114.256C284.627 111.44 283.816 108.048 283.816 104.08C283.816 100.112 284.627 96.7413 286.248 93.968C287.869 91.152 289.981 88.9973 292.584 87.504C295.229 86.0107 298.045 85.264 301.032 85.264C303.293 85.264 305.448 85.6907 307.496 86.544C309.544 87.3973 311.379 88.6347 313 90.256C314.621 91.8347 315.901 93.7973 316.84 96.144C317.779 98.448 318.248 101.093 318.248 104.08C318.248 108.048 317.437 111.44 315.816 114.256C314.195 117.029 312.061 119.163 309.416 120.656C306.813 122.149 304.019 122.896 301.032 122.896ZM301.032 115.216C302.653 115.216 304.019 114.768 305.128 113.872C306.28 112.933 307.133 111.632 307.688 109.968C308.285 108.304 308.584 106.341 308.584 104.08C308.584 101.819 308.285 99.856 307.688 98.192C307.133 96.528 306.28 95.248 305.128 94.352C304.019 93.4133 302.653 92.944 301.032 92.944C299.411 92.944 298.024 93.4133 296.872 94.352C295.763 95.248 294.909 96.528 294.312 98.192C293.757 99.856 293.48 101.819 293.48 104.08C293.48 106.341 293.757 108.304 294.312 109.968C294.909 111.632 295.763 112.933 296.872 113.872C298.024 114.768 299.411 115.216 301.032 115.216ZM326.119 122V86.16H333.799L334.503 92.496H334.695C336.017 90.1493 337.575 88.3573 339.367 87.12C341.159 85.8827 342.993 85.264 344.871 85.264C345.895 85.264 346.705 85.3493 347.303 85.52C347.943 85.648 348.519 85.8187 349.031 86.032L347.495 94.16C346.812 93.9893 346.193 93.8613 345.639 93.776C345.127 93.648 344.465 93.584 343.655 93.584C342.289 93.584 340.839 94.1173 339.303 95.184C337.809 96.2507 336.551 98.064 335.527 100.624V122H326.119Z" fill="#404040"/>
</svg>
