<svg width="165" height="165" viewBox="0 0 165 165" fill="none" xmlns="http://www.w3.org/2000/svg">
<rect x="2" y="2" width="161" height="161" rx="24" fill="white"/>
<rect x="2" y="2" width="161" height="161" rx="24" stroke="#404040" stroke-width="4"/>
<path d="M69.7181 122.916H72.1121V135.948H69.7181V122.916ZM71.2841 128.37H74.2181V130.332H71.2841V128.37ZM61.0061 137.388H72.6881V139.314H61.0061V137.388ZM61.0061 135.12H63.4001V137.946H61.0061V135.12ZM62.6621 130.926H65.0561V133.374H62.6621V130.926ZM58.9721 134.328L58.7021 132.492C59.6621 132.492 60.7241 132.48 61.8881 132.456C63.0641 132.432 64.2581 132.384 65.4701 132.312C66.6941 132.228 67.8701 132.102 68.9981 131.934L69.1781 133.572C68.0141 133.788 66.8261 133.95 65.6141 134.058C64.4021 134.166 63.2261 134.238 62.0861 134.274C60.9581 134.298 59.9201 134.316 58.9721 134.328ZM59.1161 124.266H68.5841V125.976H59.1161V124.266ZM63.8501 126.426C65.0861 126.426 66.0701 126.66 66.8021 127.128C67.5461 127.584 67.9181 128.208 67.9181 129C67.9181 129.804 67.5461 130.434 66.8021 130.89C66.0701 131.346 65.0861 131.574 63.8501 131.574C62.6261 131.574 61.6421 131.346 60.8981 130.89C60.1661 130.434 59.8001 129.804 59.8001 129C59.8001 128.208 60.1661 127.584 60.8981 127.128C61.6421 126.66 62.6261 126.426 63.8501 126.426ZM63.8501 128.028C63.2861 128.028 62.8481 128.112 62.5361 128.28C62.2241 128.436 62.0681 128.676 62.0681 129C62.0681 129.312 62.2241 129.552 62.5361 129.72C62.8481 129.876 63.2861 129.954 63.8501 129.954C64.4141 129.954 64.8521 129.876 65.1641 129.72C65.4881 129.552 65.6501 129.312 65.6501 129C65.6501 128.676 65.4881 128.436 65.1641 128.28C64.8521 128.112 64.4141 128.028 63.8501 128.028ZM62.6621 122.844H65.0561V124.986H62.6621V122.844ZM84.3867 127.236H88.2567V129.162H84.3867V127.236ZM86.9967 122.934H89.4087V135.084H86.9967V122.934ZM78.3927 137.388H89.7867V139.314H78.3927V137.388ZM78.3927 134.058H80.7867V138.522H78.3927V134.058ZM79.3107 125.112H81.2547V126.156C81.2547 127.212 81.0867 128.214 80.7507 129.162C80.4147 130.11 79.8987 130.944 79.2027 131.664C78.5187 132.372 77.6367 132.906 76.5567 133.266L75.3687 131.358C76.0527 131.13 76.6407 130.836 77.1327 130.476C77.6367 130.104 78.0447 129.684 78.3567 129.216C78.6807 128.748 78.9207 128.256 79.0767 127.74C79.2327 127.224 79.3107 126.696 79.3107 126.156V125.112ZM79.8147 125.112H81.7227V126.156C81.7227 126.804 81.8547 127.452 82.1187 128.1C82.3827 128.736 82.7907 129.318 83.3427 129.846C83.9067 130.362 84.6267 130.77 85.5027 131.07L84.3327 132.924C83.3007 132.576 82.4487 132.066 81.7767 131.394C81.1167 130.71 80.6247 129.918 80.3007 129.018C79.9767 128.106 79.8147 127.152 79.8147 126.156V125.112ZM76.0167 124.05H84.9807V125.958H76.0167V124.05ZM92.0173 135.696H107.119V137.64H92.0173V135.696ZM98.2813 131.988H100.675V136.218H98.2813V131.988ZM98.2093 123.852H100.297V125.058C100.297 125.766 100.195 126.45 99.9913 127.11C99.7993 127.77 99.5053 128.394 99.1093 128.982C98.7253 129.57 98.2513 130.104 97.6873 130.584C97.1233 131.052 96.4753 131.454 95.7433 131.79C95.0233 132.126 94.2253 132.372 93.3493 132.528L92.3593 130.53C93.1273 130.41 93.8173 130.218 94.4293 129.954C95.0413 129.69 95.5813 129.378 96.0493 129.018C96.5293 128.646 96.9253 128.244 97.2373 127.812C97.5613 127.368 97.8013 126.912 97.9573 126.444C98.1253 125.976 98.2093 125.514 98.2093 125.058V123.852ZM98.6593 123.852H100.765V125.058C100.765 125.526 100.843 125.994 100.999 126.462C101.167 126.93 101.407 127.38 101.719 127.812C102.043 128.244 102.439 128.646 102.907 129.018C103.375 129.378 103.915 129.69 104.527 129.954C105.151 130.218 105.841 130.41 106.597 130.53L105.607 132.528C104.731 132.36 103.933 132.114 103.213 131.79C102.493 131.454 101.851 131.052 101.287 130.584C100.723 130.116 100.243 129.594 99.8473 129.018C99.4633 128.43 99.1693 127.806 98.9653 127.146C98.7613 126.474 98.6593 125.778 98.6593 125.058V123.852Z" fill="#7A7A7A"/>
<path d="M60.7368 15C70.7738 15 78.9323 23.1552 78.9323 33.2682C78.9323 43.3052 70.7373 51.4605 60.6607 51.4605C50.5875 51.4605 42.4654 43.2655 42.4654 33.1923C42.4654 23.1189 50.6636 15 60.7368 15ZM86.5649 93.1096C86.5649 93.1096 86.3764 93.1096 86.0754 93.1459C85.6986 93.222 85.2487 93.2981 84.647 93.4469C83.8961 93.5593 82.9537 93.6717 81.9021 93.7478C80.8107 93.7842 79.6103 93.8966 78.2543 93.8239C76.9415 93.8239 75.473 93.6717 73.9717 93.4832C73.2176 93.3708 72.4273 93.222 71.6401 93.0698C70.8134 92.845 69.9866 92.6564 69.1566 92.4316C68.4059 92.2067 67.5792 91.9421 66.7887 91.6809C65.8496 91.3436 65.1352 91.0029 64.2721 90.5895C63.4454 90.2159 62.5788 89.8752 61.7884 89.4255L59.4205 87.9968C57.767 87.0939 56.3749 85.8175 54.9098 84.7263C54.159 84.1639 53.5573 83.4861 52.8793 82.8477C52.241 82.1699 51.6028 81.5316 50.9643 80.8932C49.8334 79.5011 48.7818 78.1485 47.7665 76.7959C46.9397 75.3672 46.1129 74.0147 45.3623 72.7745C45.2498 72.4735 45.1374 72.2089 45.0216 71.9477L36 73.0755L47.4655 51.2356L63.9314 69.5764L55.8886 70.5917V70.7042C56.4144 71.908 56.9402 73.2242 57.5421 74.5768C57.9192 75.215 58.2928 75.8567 58.6699 76.4949C59.0832 77.1332 59.4205 77.8475 59.91 78.4494C60.889 79.6896 61.7521 81.0422 62.9161 82.1333L64.6094 83.863C65.2113 84.4253 65.8859 84.8783 66.4515 85.4041C67.0534 85.8538 67.7677 86.4557 68.2935 86.8691C69.0079 87.2825 69.6857 87.7324 70.3604 88.1853C70.9987 88.5591 71.6765 88.936 72.3149 89.2735C72.9927 89.614 73.631 89.915 74.309 90.2159C75.6252 90.7781 76.9415 91.2675 78.1418 91.6048C79.3457 92.0182 80.5097 92.2067 81.525 92.4713C82.5403 92.6564 83.4432 92.8086 84.1971 92.9211C84.3823 92.9211 84.5343 92.9574 84.7229 92.9574C86.1515 92.9972 87.0146 93.0335 87.0146 93.0335C87.0146 93.0335 86.7898 93.0698 86.4129 93.1459H86.5649V93.1096ZM105.888 99.3864C95.7752 99.3864 87.5802 91.1914 87.5802 81.0817C87.5802 70.9688 95.7752 62.774 105.888 62.774C116.001 62.774 124.18 70.9688 124.18 81.0817C124.18 91.1914 116.001 99.3864 105.888 99.3864ZM118.557 62.774L102.088 44.4329L110.098 43.4177V43.3052C109.609 42.1014 109.046 40.7852 108.445 39.4326C108.104 38.8307 107.69 38.1529 107.317 37.5146C106.903 36.8762 106.563 36.1619 106.073 35.5601C105.098 34.3563 104.271 32.9674 103.067 31.9156L101.374 30.1464C100.775 29.5843 100.098 29.1311 99.4957 28.6053C98.8937 28.1193 98.219 27.5537 97.6536 27.1766C96.9393 26.7269 96.2249 26.2772 95.5867 25.8241C94.9087 25.4868 94.2704 25.1097 93.6322 24.7361C92.9542 24.3954 92.3159 24.0944 91.6379 23.7935C90.3217 23.2313 89.0452 22.7418 87.8414 22.4046C86.6378 22.0275 85.4737 21.8027 84.4584 21.538C83.4432 21.3529 82.504 21.2007 81.7533 21.1246C81.6011 21.1246 81.4126 21.0883 81.2638 21.052C79.8351 21.052 78.9686 21.0122 78.9686 21.0122C78.9686 21.0122 79.1969 21.0122 79.5342 20.8998H79.382C79.382 20.8998 79.6103 20.8998 79.9112 20.8271C80.2849 20.751 80.738 20.6749 81.3399 20.5625C82.0906 20.4501 83.0298 20.3376 84.121 20.2252C85.1728 20.2252 86.4129 20.1128 87.729 20.1855C89.0452 20.1855 90.5102 20.3376 92.015 20.5262C92.7657 20.6386 93.5561 20.7874 94.3829 20.9396C95.2096 21.1644 96.0364 21.3529 96.8632 21.538C97.6932 21.8027 98.444 22.0275 99.2343 22.2921C100.173 22.6294 100.888 23.0065 101.751 23.3438C102.541 23.7208 103.444 24.0581 104.231 24.4715L106.602 25.9365C108.256 26.8393 109.645 28.1193 111.113 29.2072C111.864 29.7728 112.502 30.4871 113.144 31.0888C113.819 31.7273 114.457 32.4018 115.059 33.0433C116.186 34.4324 117.241 35.785 118.257 37.1376C119.083 38.5663 119.91 39.9221 120.661 41.1622C120.773 41.4632 120.886 41.688 120.998 41.989L130 40.8613L118.557 62.6614V62.774Z" fill="#7A7A7A"/>
<path d="M62.5849 39.5063C60.2931 39.9593 57.9218 38.9805 56.5329 36.9895L53.1863 39.3574C54.6148 41.3484 56.5329 42.7405 58.7122 43.3424V45.8227H62.8097V43.6434C62.9983 43.6434 63.2231 43.5673 63.448 43.531C66.0805 43.0052 68.8617 40.71 68.7128 37.5519C68.4879 32.7798 63.825 31.953 61.0075 31.4272C60.4055 31.3148 59.8797 31.2022 59.3903 31.0865C58.8644 30.9377 58.3352 30.7129 57.9979 30.4483C57.5845 30.1473 57.4358 29.5852 57.6243 29.0196C57.8094 28.4574 58.4511 27.8919 59.2778 27.5546C60.2534 27.1775 61.6059 27.2173 62.7371 27.7431C63.2629 27.968 64.1623 28.5335 64.5394 29.4727L68.3755 28.0804C67.734 26.3144 66.3053 24.8858 64.4269 24.0227C63.9011 23.7944 63.3753 23.6093 62.8097 23.4934V20.7122H58.7122V23.4934C58.375 23.5695 58.074 23.6819 57.7367 23.7944C55.7425 24.5848 54.3138 26.0498 53.7121 27.7794C53.0373 29.9985 53.7121 32.3266 55.4415 33.6825C56.4568 34.5092 57.6606 34.9226 58.3386 35.0716C58.9008 35.2236 59.539 35.336 60.217 35.4486C63.6002 36.0869 64.5394 36.5761 64.5789 37.7799C64.6518 38.5306 63.5638 39.3574 62.6212 39.5824L62.5849 39.5063Z" fill="white"/>
<path d="M107.535 88.937C105.207 88.937 103.252 87.7333 102.048 85.7789H106.973L107.651 82.5114H100.921C100.881 82.0584 100.845 81.6085 100.845 81.1192V80.6297H108.1L108.815 77.359H101.559C102.65 74.8787 104.866 73.2615 107.535 73.2615C108.249 73.2615 108.927 73.3774 109.605 73.4898L110.62 69.6933C109.605 69.465 108.626 69.3525 107.575 69.3525C102.65 69.3525 98.6652 72.5869 97.3094 77.359H95.5435V80.6297H96.7836V81.1192C96.7836 81.6085 96.8232 82.0584 96.8597 82.5114H95.583V85.7789H97.6499C99.2671 90.0283 103.024 92.8857 107.611 92.8857C108.815 92.8857 109.942 92.7698 110.958 92.6211L110.243 88.7484C109.417 88.9006 108.59 88.9767 107.611 88.9767L107.535 88.937Z" fill="white"/>
</svg>
